<svg width="55" height="20" viewBox="0 0 60 20" fill="none" xmlns="http://www.w3.org/2000/svg">
<path d="M9.45156 3.17887C10.0453 2.31269 10.4386 1.16068 10.3421 0C9.47382 0.0519706 8.42738 0.666955 7.81139 1.51581C7.26219 2.2434 6.77236 3.45604 6.91337 4.57341C7.87818 4.68601 8.85041 4.01906 9.45156 3.17887V3.17887ZM11.589 10.5673C11.5667 8.04677 13.3553 6.86011 13.437 6.78216C12.435 5.04114 10.8617 4.84192 10.3273 4.80728C8.92462 4.712 7.74459 5.73408 7.06923 5.73408C6.39386 5.73408 5.37711 4.85925 4.27129 4.86791C2.82408 4.89389 1.44366 5.85535 0.708926 7.37116C-0.805078 10.4028 0.360112 14.9069 1.82959 17.3582C2.54948 18.5795 3.40296 19.9394 4.52362 19.8787C5.59233 19.8268 6.01536 19.0645 7.2993 19.0645C8.58323 19.0645 8.96915 19.8787 10.0972 19.8528C11.2698 19.8268 12.012 18.6314 12.7022 17.4101C13.5186 16.0156 13.8526 14.6903 13.8748 14.6037C13.8526 14.5691 11.6112 13.5557 11.589 10.5673V10.5673ZM36.0876 6.10654C33.2674 6.10654 31.5011 7.85622 31.3675 10.2642H33.5791C33.7869 9.06886 34.6404 8.33261 35.9912 8.33261C37.4235 8.33261 38.2919 9.22477 38.2919 10.7059V11.7453L35.1599 11.9532C32.4436 12.1265 30.8999 13.573 30.8999 15.903C30.8999 18.311 32.4733 19.9307 34.6998 19.9307C36.199 19.9307 37.661 18.9866 38.3215 17.4968H38.3958V19.7055H40.6222V10.5154C40.6297 7.83023 38.8633 6.10654 36.0876 6.10654V6.10654ZM38.2919 14.7163C38.2919 16.4573 37.0079 17.7739 35.3677 17.7739C34.1061 17.7739 33.2749 17.0204 33.2749 15.8337C33.2749 14.6903 34.069 13.9628 35.4865 13.8502L38.2993 13.6509V14.7163H38.2919ZM57.6251 1.34257V8.57514H57.5954C56.9497 7.10264 55.6287 6.13253 53.9885 6.13253C51.1164 6.13253 49.1942 8.81767 49.1942 13.0273C49.1942 17.2369 51.1164 19.9394 54.0108 19.9394C55.6806 19.9394 56.9868 18.9519 57.6622 17.4275L57.6993 17.4621V19.7142H60V1.34257H57.6251ZM54.6268 17.6094C52.7565 17.6094 51.6136 15.8424 51.6136 13.0273C51.6136 10.2209 52.7862 8.44521 54.6268 8.44521C56.4376 8.44521 57.6325 10.2642 57.6325 13.0273C57.6399 15.825 56.4376 17.6094 54.6268 17.6094ZM45.2013 8.62711H45.1568V6.27978H42.9303V19.7055H45.3053V11.7107C45.3053 9.81377 46.181 8.64444 47.695 8.64444C48.1477 8.64444 48.6079 8.71373 48.7934 8.79169V6.23647C48.6227 6.19316 48.2887 6.13253 47.9473 6.13253C46.604 6.13253 45.5799 7.05933 45.2013 8.62711V8.62711ZM23.1221 17.5314C20.2425 17.5314 18.4094 14.8376 18.4094 10.5414C18.4094 6.30576 20.2648 3.56864 23.1073 3.56864C25.2447 3.56864 26.9071 5.15375 27.3524 7.49242H29.7644C29.3563 3.68125 26.6696 1.07406 23.1073 1.07406C18.7211 1.07406 15.9232 4.72932 15.9232 10.5327C15.9232 16.3794 18.6989 20 23.1073 20C26.7142 20 29.1856 17.7566 29.7793 13.9887H27.3524C26.8626 16.2235 25.3189 17.5314 23.1221 17.5314V17.5314Z" fill="black"/>
</svg>
